<?xml version="1.0" encoding="UTF-8" standalone="no"?>

<!-- Created with Inkscape (http://www.inkscape.org/) -->

<svg xmlns:rdf="http://www.w3.org/1999/02/22-rdf-syntax-ns#" xmlns="http://www.w3.org/2000/svg" xml:space="preserve" version="1.1" xmlns:cc="http://creativecommons.org/ns#" xmlns:dc="http://purl.org/dc/elements/1.1/" viewBox="0 0 675 297.1125"><metadata><rdf:RDF><cc:Work rdf:about=""><dc:format>image/svg+xml</dc:format><dc:type rdf:resource="http://purl.org/dc/dcmitype/StillImage"/><dc:title/></cc:Work></rdf:RDF></metadata><defs><clipPath id="clipPath2999" clipPathUnits="userSpaceOnUse"><path d="m0,237.69,540,0v-237.69h-540v237.69z"/></clipPath></defs><g transform="matrix(1.25,0,0,-1.25,0,297.1125)"><g clip-path="url(#clipPath2999)"><g id="logo-svg-group" transform="translate(113.915,19.998)"><path fill-rule="nonzero" fill="#FFF" d="m0,0c-28.432,0-52.633,10.807-70.036,31.254-15.399,18.094-23.879,42.059-23.879,67.488,0,47.969,31.964,98.952,91.201,98.952,58.714,0,78.297-50.535,79.102-52.687l-20.867-7.807c-0.583,1.51-15.237,38.215-58.235,38.215-45.247,0-68.921-38.572-68.921-76.673,0-37.998,24.59-76.463,71.588-76.463,42.305,0.177,62.865,23.653,84.633,48.506,21.946,25.057,44.637,50.967,88.502,50.967,39.806,0,63.469-10.437,75.836-37.468,12.369,27.031,36.032,37.468,75.838,37.468,23.691,0,42.792-7.823,56.773-23.252,29.193-32.214,24.341-85.054,24.116-87.328h-22.222c0.043,0.462,4.112,47.597-18.453,72.422-9.71,10.685-22.865,15.879-40.214,15.879-48.543,0-64.699-12.737-64.699-88.126h-22.279c0,75.389-16.153,88.126-64.696,88.126-33.761,0-51.36-20.098-71.742-43.368-22.943-26.195-48.948-55.887-101.346-56.105"/></g></g></g></svg>

